<svg xmlns="http://www.w3.org/2000/svg" width="360" height="360" viewBox="0 0 360 360">
  <defs>
    <linearGradient id="g" x1="0" y1="0" x2="1" y2="1">
      <stop offset="0%" stop-color="#123B66" stop-opacity="0.12"/>
      <stop offset="100%" stop-color="#2563EB" stop-opacity="0.08"/>
    </linearGradient>
  </defs>
  <g fill="none" stroke="url(#g)" stroke-width="2.2">
    <path d="M48 62c18-8 34 6 42 18 8 12 6 28-4 36s-26 4-34-8-14-30-4-46z"/>
    <circle cx="290" cy="78" r="26"/>
    <path d="M278 78h24M290 66v24"/>
    <path d="M72 280l18-28 18 28h-36z"/>
    <rect x="250" y="250" width="48" height="48" rx="10"/>
    <path d="M262 274h24M274 262v24"/>
    <path d="M170 40c8 0 14 10 14 22s-6 22-14 22-14-10-14-22 6-22 14-22z"/>
  </g>
  <g fill="#F4B942" fill-opacity="0.18">
    <path d="M188 300l6 12 13 2-10 9 3 13-12-6-12 6 3-13-10-9 13-2z"/>
    <circle cx="56" cy="168" r="5"/>
    <circle cx="320" cy="180" r="4"/>
  </g>
</svg>
